<svg id="Calque_1" data-name="Calque 1" xmlns="http://www.w3.org/2000/svg" viewBox="0 0 187.2 81.21"><defs><style>.cls-1{fill:#fff;}</style></defs><path d="M228.12,133.94H131.27l-.25-5.11,6.41-2.18c1.49-5.22,2.12-10.9,5.84-15.93,3.5,3.49,7,5.41,11.77,2.59.37,2.85.69,5.37,1.08,8.38,2.22-.43,4.25-.88,6.31-1.21,5.74-.9,11.47-1.92,17.25-2.56a29.47,29.47,0,0,1,12.65,1.7c4.43,1.48,8.9.74,13.59,0l.65-8.58L204,108.79V105.4c2.26-2.17,3.81-2.41,5.43-.82s1.33,3.2-1.29,6.33v8.18l2.05.15v-7.13l5.55-4.45V102l-4.9-4.7H207c-3.34-2.72-3.37-4.19-.24-7.14,4.43-.34,5.23.53,5.15,6.17l5.49,4.75v6.88c-1.66,1.47-3.53,3.12-5.29,4.66v6.52l2.71.22c.15-1.83.29-3.46.48-5.59l4.93-4.07v-6.76L217,99.21l2.85-3.39c3.29.44,4.36,1.93,4,4.65l-2.16,2.63c.77,4.54-.36,8.56-4.81,11.09v5.23l11.19,2.73ZM209.36,96.68c.64-1.46,1.52-2.54,1.47-3.57-.08-1.59-1.43-2.27-3.67-2.35l-2.28,3.78Zm1.08,10.59-3.08-2.9c-1.91.55-3.1,1.39-2.59,3.11.22.72,1.32,1.73,1.9,1.66C207.73,109,208.71,108.19,210.44,107.27Zm9.71-5.85c1.95-.52,2.9-1.29,2.34-2.86-.19-.53-1.05-1.28-1.43-1.19-.77.18-2,.86-2,1.36C219.05,99.64,219.77,100.56,220.15,101.42Z" transform="translate(-49.72 -89.68)"/><path d="M86.17,159.84l-7.33-6.51-5.53,6.23.21.3,5.48-4.5,3.87,5.86.82-.72h4l7.57-7.74-6-6.69,12.64-11.64h14.12l.91,3-5.93.34,2.94,5.27h-6.69l2.93,5.45h-6.36l2.43,5.86H99.88L102.6,160c-2.22,2-5.26-.7-7.38,2.4,5.79.43,11.14,1,16.51,1.2s10.67,0,16.24,0v7H53.65v-6.05c1.18-.51,2.44-1.12,3.75-1.6a12.71,12.71,0,0,1,4.41-.9L75,148.22l-6.88-5.52,7.77-6.76,16.71,17.19Z" transform="translate(-49.72 -89.68)"/><path d="M170.81,159.25c.24-5.19.47-10.38.72-15.82h7.64c-.42,8.79-.83,17.5-1.25,26.48H167.68c-2.86-5-5.84-10.27-8.83-15.51h-.63c-.1,2.46-.16,4.93-.3,7.39s-.37,5.21-.58,8.11h-7.52c.43-8.74.85-17.48,1.28-26.47h10.38l8.72,16Z" transform="translate(-49.72 -89.68)"/><path d="M110.67,130.85c-2.73,2.5-5.74,1-8.94,1.34.44-9.81.87-19.36,1.3-29.15h8.65v6.68c1.46,0,2.73.06,4,0,9.56-.54,13,5.77,11.41,14.08C125.41,132.75,116.84,135.06,110.67,130.85Zm.31-14.68c0,2.51-.12,4.75,0,7a3.31,3.31,0,0,0,3.17,3.26,3.51,3.51,0,0,0,3.89-2.41c.94-2.2,1.16-4.41-.29-6.42C116.13,115.28,113.78,115.5,111,116.17Z" transform="translate(-49.72 -89.68)"/><path d="M225.33,162.56h-9.88c-1.24,2.47-2.45,4.91-3.72,7.46h-9.07c4.73-9,9.31-17.76,14-26.65h10.53c3.22,8.79,6.43,17.56,9.75,26.61H228C227.12,167.57,226.25,165.15,225.33,162.56Zm-3.89-13.89c-1.38,3.06-2.4,5.34-3.51,7.79h6Z" transform="translate(-49.72 -89.68)"/><path d="M97.08,132H88.82v-9c-4.54.84-4.64.89-6.48,3.81l4.43,1.68c-.27,1.17-.6,2.58-1,4.19a48,48,0,0,1-5.91,0,6,6,0,0,1-5.52-5.24,6.15,6.15,0,0,1,3.45-6.79c2.47-1.1,5.18-1.66,7.76-2.53,1.14-.38,2.22-.92,3.43-1.44-2-2.9-2.71-2.91-11.71-.32l.78-5.27a33.78,33.78,0,0,1,14.92-1c3.65.54,5.16,2.44,5,6.17C97.85,121.44,97.41,126.63,97.08,132Z" transform="translate(-49.72 -89.68)"/><path d="M60.67,103.08c-.38,7.59-.73,14.81-1.11,22.44H73L72.45,132H49.72c.5-9.71,1-19.17,1.49-28.9Z" transform="translate(-49.72 -89.68)"/><path d="M193.46,163.11a22.43,22.43,0,0,0-2.08-2.75c-1.7-1.66-3.56-3.16-5.28-4.8a7,7,0,0,1-1.91-8.14c1.27-3.07,3.77-4.4,7.14-4.27,3.08.11,6.17,0,9.53,0,.33,2.13.63,4.06,1,6.29-3.24.29-6.5-2.19-9.68.94a16.42,16.42,0,0,0,2,2.93c1.54,1.48,3.39,2.64,4.91,4.14,4.68,4.59,3,10.94-3.28,12.75-4.15,1.19-8.24.62-12.53-.41l-.82-6.14C186.09,163.56,189.72,166,193.46,163.11Z" transform="translate(-49.72 -89.68)"/><path d="M137,143.36h8.52c-.34,8.91-.68,17.62-1,26.58h-8.6C136.21,161.23,136.57,152.5,137,143.36Z" transform="translate(-49.72 -89.68)"/><path d="M190.93,93.84,202,103.41l-1.66,2.71-4.64-2c-1.09-1.73-1.35-4.36-4-4-1,.14-2.46,1.23-2.54,2-.13,1.29.69,2.68,1.11,4l.78-.57,7,2.93,0,.79c-.77.34-1.61,1.08-2.29,1-3.15-.56-6.28-1.25-9.35-2.11a3.44,3.44,0,0,1-2.66-4.37c1-.88,2.55-1.56,3-2.68s-.17-2.61-.39-4.57Z" transform="translate(-49.72 -89.68)"/><path d="M158.08,109c.41-4.86-2.14-7.31-5.5-9.73l9.09-7.48c0,4.85,1.67,7.74,6.65,8.52Z" transform="translate(-49.72 -89.68)"/><path d="M150.1,101.49c3.21,0,5.24,2.06,5.23,5.37a5.18,5.18,0,0,1-5.09,5.25c-3.1.07-5.22-2.15-5.18-5.42A4.91,4.91,0,0,1,150.1,101.49Z" transform="translate(-49.72 -89.68)"/><path d="M185,96.32c-3.34,1.61-4.29,1.7-3.2,6.57l-9.56-3.5c.64-2.82,1.19-5.25,1.78-7.88Z" transform="translate(-49.72 -89.68)"/><path d="M167.54,89.68a4.3,4.3,0,0,1,4.25,4.37,4.1,4.1,0,0,1-4.08,4.1,4.24,4.24,0,1,1-.17-8.47Z" transform="translate(-49.72 -89.68)"/><path d="M136.58,111.27h-5c.13-2.85.25-5.5.37-8.27h5.48C137.16,105.8,136.89,108.36,136.58,111.27Z" transform="translate(-49.72 -89.68)"/><path class="cls-1" d="M209.36,96.68l-4.48-2.14,2.28-3.78c2.24.08,3.59.76,3.67,2.35C210.88,94.14,210,95.22,209.36,96.68Z" transform="translate(-49.72 -89.68)"/><path class="cls-1" d="M210.44,107.27c-1.73.92-2.71,1.75-3.77,1.87-.58.07-1.68-.94-1.9-1.66-.51-1.72.68-2.56,2.59-3.11Z" transform="translate(-49.72 -89.68)"/><path class="cls-1" d="M220.15,101.42c-.38-.86-1.1-1.78-1.08-2.69,0-.5,1.22-1.18,2-1.36.38-.09,1.24.66,1.43,1.19C223.05,100.13,222.1,100.9,220.15,101.42Z" transform="translate(-49.72 -89.68)"/><path class="cls-1" d="M111,116.17c2.8-.67,5.15-.89,6.8,1.4,1.45,2,1.23,4.22.29,6.42a3.51,3.51,0,0,1-3.89,2.41,3.31,3.31,0,0,1-3.17-3.26C110.86,120.92,111,118.68,111,116.17Z" transform="translate(-49.72 -89.68)"/><path class="cls-1" d="M221.44,148.67l2.54,7.79h-6C219,154,220.06,151.73,221.44,148.67Z" transform="translate(-49.72 -89.68)"/></svg>